<mxfile host="app.diagrams.net" modified="2024-07-16T11:11:54.794Z" agent="Mozilla/5.0 (Windows NT 10.0; Win64; x64) AppleWebKit/537.36 (KHTML, like Gecko) Chrome/126.0.0.0 Safari/537.36" etag="ZwgKqfcs5F5MxtikcRP0" version="24.6.5" type="device">
  <diagram name="Page-1" id="U28HR0_EQbx0b6S-DrAO">
    <mxGraphModel dx="1764" dy="724" grid="0" gridSize="10" guides="1" tooltips="1" connect="1" arrows="1" fold="1" page="1" pageScale="1" pageWidth="850" pageHeight="1100" background="#000000" math="0" shadow="0">
      <root>
        <mxCell id="0" />
        <mxCell id="1" parent="0" />
        <mxCell id="Y-jsnY2lHVutLPHMxVx3-38" style="edgeStyle=orthogonalEdgeStyle;rounded=0;orthogonalLoop=1;jettySize=auto;html=1;exitX=0.5;exitY=1;exitDx=0;exitDy=0;entryX=0.5;entryY=0;entryDx=0;entryDy=0;strokeColor=#FFFFFF;" parent="1" source="Y-jsnY2lHVutLPHMxVx3-1" target="Y-jsnY2lHVutLPHMxVx3-11" edge="1">
          <mxGeometry relative="1" as="geometry" />
        </mxCell>
        <mxCell id="Y-jsnY2lHVutLPHMxVx3-39" style="edgeStyle=orthogonalEdgeStyle;rounded=0;orthogonalLoop=1;jettySize=auto;html=1;exitX=0.75;exitY=1;exitDx=0;exitDy=0;entryX=0.5;entryY=0;entryDx=0;entryDy=0;strokeColor=#FFFFFF;" parent="1" source="Y-jsnY2lHVutLPHMxVx3-1" target="Y-jsnY2lHVutLPHMxVx3-12" edge="1">
          <mxGeometry relative="1" as="geometry" />
        </mxCell>
        <mxCell id="Y-jsnY2lHVutLPHMxVx3-40" style="edgeStyle=orthogonalEdgeStyle;rounded=0;orthogonalLoop=1;jettySize=auto;html=1;exitX=0.25;exitY=1;exitDx=0;exitDy=0;entryX=0.5;entryY=0;entryDx=0;entryDy=0;strokeColor=#FFFFFF;" parent="1" source="Y-jsnY2lHVutLPHMxVx3-1" target="Y-jsnY2lHVutLPHMxVx3-10" edge="1">
          <mxGeometry relative="1" as="geometry" />
        </mxCell>
        <mxCell id="Y-jsnY2lHVutLPHMxVx3-1" value="Health and Fitness Management System" style="rounded=0;whiteSpace=wrap;html=1;fillColor=none;strokeColor=#FFFFFF;fontColor=#FFFFFF;" parent="1" vertex="1">
          <mxGeometry x="158" y="159" width="540" height="60" as="geometry" />
        </mxCell>
        <mxCell id="Y-jsnY2lHVutLPHMxVx3-2" value="Members" style="rounded=0;whiteSpace=wrap;html=1;fontColor=#FFFFFF;labelBackgroundColor=#000000;fillColor=#000000;strokeColor=#FFFFFF;" parent="1" vertex="1">
          <mxGeometry x="208" y="60" width="120" height="60" as="geometry" />
        </mxCell>
        <mxCell id="Y-jsnY2lHVutLPHMxVx3-7" style="edgeStyle=orthogonalEdgeStyle;rounded=0;orthogonalLoop=1;jettySize=auto;html=1;exitX=0.5;exitY=1;exitDx=0;exitDy=0;entryX=0.5;entryY=0;entryDx=0;entryDy=0;strokeColor=#FFFFFF;" parent="1" source="Y-jsnY2lHVutLPHMxVx3-3" target="Y-jsnY2lHVutLPHMxVx3-1" edge="1">
          <mxGeometry relative="1" as="geometry" />
        </mxCell>
        <mxCell id="Y-jsnY2lHVutLPHMxVx3-3" value="Trainers" style="rounded=0;whiteSpace=wrap;html=1;fontColor=#FFFFFF;labelBackgroundColor=#000000;fillColor=#000000;strokeColor=#FFFFFF;" parent="1" vertex="1">
          <mxGeometry x="368" y="60" width="120" height="60" as="geometry" />
        </mxCell>
        <mxCell id="Y-jsnY2lHVutLPHMxVx3-4" value="Nutritionist" style="rounded=0;whiteSpace=wrap;html=1;fontColor=#FFFFFF;labelBackgroundColor=#000000;fillColor=#000000;strokeColor=#FFFFFF;" parent="1" vertex="1">
          <mxGeometry x="545" y="60" width="120" height="60" as="geometry" />
        </mxCell>
        <mxCell id="Y-jsnY2lHVutLPHMxVx3-6" style="edgeStyle=orthogonalEdgeStyle;rounded=0;orthogonalLoop=1;jettySize=auto;html=1;exitX=0.5;exitY=1;exitDx=0;exitDy=0;entryX=0.205;entryY=-0.017;entryDx=0;entryDy=0;entryPerimeter=0;strokeColor=#FFFFFF;" parent="1" source="Y-jsnY2lHVutLPHMxVx3-2" target="Y-jsnY2lHVutLPHMxVx3-1" edge="1">
          <mxGeometry relative="1" as="geometry" />
        </mxCell>
        <mxCell id="Y-jsnY2lHVutLPHMxVx3-8" style="edgeStyle=orthogonalEdgeStyle;rounded=0;orthogonalLoop=1;jettySize=auto;html=1;exitX=0.5;exitY=1;exitDx=0;exitDy=0;strokeColor=#FFFFFF;entryX=0.828;entryY=0.039;entryDx=0;entryDy=0;entryPerimeter=0;" parent="1" source="Y-jsnY2lHVutLPHMxVx3-4" target="Y-jsnY2lHVutLPHMxVx3-1" edge="1">
          <mxGeometry relative="1" as="geometry">
            <mxPoint x="607" y="175" as="targetPoint" />
          </mxGeometry>
        </mxCell>
        <mxCell id="9uExxKLS-SaeiL6VDEg2-7" value="" style="edgeStyle=orthogonalEdgeStyle;shape=connector;rounded=0;orthogonalLoop=1;jettySize=auto;html=1;strokeColor=#FFFFFF;align=center;verticalAlign=middle;fontFamily=Helvetica;fontSize=11;fontColor=default;labelBackgroundColor=default;endArrow=classic;" edge="1" parent="1" source="Y-jsnY2lHVutLPHMxVx3-10" target="9uExxKLS-SaeiL6VDEg2-6">
          <mxGeometry relative="1" as="geometry" />
        </mxCell>
        <mxCell id="Y-jsnY2lHVutLPHMxVx3-10" value="Member Registration" style="rounded=0;whiteSpace=wrap;html=1;fontColor=#FFFFFF;labelBackgroundColor=#000000;fillColor=#000000;strokeColor=#FFFFFF;" parent="1" vertex="1">
          <mxGeometry x="195" y="261" width="117" height="49" as="geometry" />
        </mxCell>
        <mxCell id="Y-jsnY2lHVutLPHMxVx3-11" value="Trainer Registration" style="rounded=0;whiteSpace=wrap;html=1;fontColor=#FFFFFF;labelBackgroundColor=#000000;fillColor=#000000;strokeColor=#FFFFFF;" parent="1" vertex="1">
          <mxGeometry x="369" y="261" width="118" height="49" as="geometry" />
        </mxCell>
        <mxCell id="Y-jsnY2lHVutLPHMxVx3-37" style="edgeStyle=orthogonalEdgeStyle;rounded=0;orthogonalLoop=1;jettySize=auto;html=1;exitX=0.5;exitY=1;exitDx=0;exitDy=0;entryX=0.75;entryY=0;entryDx=0;entryDy=0;strokeColor=#FFFFFF;" parent="1" source="Y-jsnY2lHVutLPHMxVx3-12" target="Y-jsnY2lHVutLPHMxVx3-16" edge="1">
          <mxGeometry relative="1" as="geometry" />
        </mxCell>
        <mxCell id="Y-jsnY2lHVutLPHMxVx3-12" value="Nutritionist Registration" style="rounded=0;whiteSpace=wrap;html=1;fontColor=#FFFFFF;labelBackgroundColor=#000000;fillColor=#000000;strokeColor=#FFFFFF;" parent="1" vertex="1">
          <mxGeometry x="543" y="257" width="119" height="43" as="geometry" />
        </mxCell>
        <mxCell id="Y-jsnY2lHVutLPHMxVx3-13" value="External Entities" style="text;html=1;align=center;verticalAlign=middle;whiteSpace=wrap;rounded=0;fontColor=#FFFFFF;strokeColor=#000000;" parent="1" vertex="1">
          <mxGeometry x="87" y="72" width="60" height="30" as="geometry" />
        </mxCell>
        <mxCell id="Y-jsnY2lHVutLPHMxVx3-35" style="edgeStyle=orthogonalEdgeStyle;rounded=0;orthogonalLoop=1;jettySize=auto;html=1;exitX=0.5;exitY=1;exitDx=0;exitDy=0;exitPerimeter=0;entryX=0.5;entryY=0;entryDx=0;entryDy=0;strokeColor=#FFFFFF;" parent="1" source="Y-jsnY2lHVutLPHMxVx3-15" target="Y-jsnY2lHVutLPHMxVx3-17" edge="1">
          <mxGeometry relative="1" as="geometry" />
        </mxCell>
        <mxCell id="Y-jsnY2lHVutLPHMxVx3-15" value="Members Table in Database" style="shape=cylinder3;whiteSpace=wrap;html=1;boundedLbl=1;backgroundOutline=1;size=15;fontColor=#FFFFFF;fillColor=#000000;strokeColor=#FFFFFF;" parent="1" vertex="1">
          <mxGeometry x="223.5" y="347" width="60" height="80" as="geometry" />
        </mxCell>
        <mxCell id="Y-jsnY2lHVutLPHMxVx3-16" value="Administrator Confirmation Process" style="rounded=0;whiteSpace=wrap;html=1;fontColor=#FFFFFF;labelBackgroundColor=#000000;fillColor=#000000;strokeColor=#FFFFFF;" parent="1" vertex="1">
          <mxGeometry x="358" y="347" width="327" height="36" as="geometry" />
        </mxCell>
        <mxCell id="Y-jsnY2lHVutLPHMxVx3-17" value="Member Login" style="rounded=0;whiteSpace=wrap;html=1;fontColor=#FFFFFF;labelBackgroundColor=#000000;fillColor=#000000;strokeColor=#FFFFFF;" parent="1" vertex="1">
          <mxGeometry x="193" y="458" width="122" height="39" as="geometry" />
        </mxCell>
        <mxCell id="9uExxKLS-SaeiL6VDEg2-4" value="" style="edgeStyle=orthogonalEdgeStyle;shape=connector;rounded=0;orthogonalLoop=1;jettySize=auto;html=1;strokeColor=#FFFFFF;align=center;verticalAlign=middle;fontFamily=Helvetica;fontSize=11;fontColor=default;labelBackgroundColor=default;endArrow=classic;" edge="1" parent="1" source="Y-jsnY2lHVutLPHMxVx3-20" target="9uExxKLS-SaeiL6VDEg2-3">
          <mxGeometry relative="1" as="geometry" />
        </mxCell>
        <mxCell id="Y-jsnY2lHVutLPHMxVx3-20" value="Trainers Table in Database" style="shape=cylinder3;whiteSpace=wrap;html=1;boundedLbl=1;backgroundOutline=1;size=15;fontColor=#FFFFFF;fillColor=#000000;strokeColor=#FFFFFF;" parent="1" vertex="1">
          <mxGeometry x="410" y="410" width="60" height="80" as="geometry" />
        </mxCell>
        <mxCell id="Y-jsnY2lHVutLPHMxVx3-21" value="Nutrtitonist Table in Database" style="shape=cylinder3;whiteSpace=wrap;html=1;boundedLbl=1;backgroundOutline=1;size=15;fontColor=#FFFFFF;fillColor=#000000;strokeColor=#FFFFFF;" parent="1" vertex="1">
          <mxGeometry x="572.5" y="410" width="60" height="80" as="geometry" />
        </mxCell>
        <mxCell id="9uExxKLS-SaeiL6VDEg2-17" value="" style="edgeStyle=orthogonalEdgeStyle;shape=connector;rounded=0;orthogonalLoop=1;jettySize=auto;html=1;strokeColor=#FFFFFF;align=center;verticalAlign=middle;fontFamily=Helvetica;fontSize=11;fontColor=default;labelBackgroundColor=default;endArrow=none;endFill=0;startArrow=classic;startFill=1;" edge="1" parent="1" source="Y-jsnY2lHVutLPHMxVx3-22" target="Y-jsnY2lHVutLPHMxVx3-17">
          <mxGeometry relative="1" as="geometry" />
        </mxCell>
        <mxCell id="9uExxKLS-SaeiL6VDEg2-18" value="" style="edgeStyle=orthogonalEdgeStyle;shape=connector;rounded=0;orthogonalLoop=1;jettySize=auto;html=1;strokeColor=#FFFFFF;align=center;verticalAlign=middle;fontFamily=Helvetica;fontSize=11;fontColor=default;labelBackgroundColor=default;endArrow=classic;" edge="1" parent="1" source="Y-jsnY2lHVutLPHMxVx3-22" target="Y-jsnY2lHVutLPHMxVx3-23">
          <mxGeometry relative="1" as="geometry" />
        </mxCell>
        <mxCell id="Y-jsnY2lHVutLPHMxVx3-22" value="Service Application and Payment" style="rounded=0;whiteSpace=wrap;html=1;fontColor=#FFFFFF;labelBackgroundColor=#000000;fillColor=#000000;strokeColor=#FFFFFF;" parent="1" vertex="1">
          <mxGeometry x="194" y="539" width="120" height="41" as="geometry" />
        </mxCell>
        <mxCell id="Y-jsnY2lHVutLPHMxVx3-29" style="edgeStyle=orthogonalEdgeStyle;rounded=0;orthogonalLoop=1;jettySize=auto;html=1;exitX=0.231;exitY=0.972;exitDx=0;exitDy=0;strokeColor=#FFFFFF;exitPerimeter=0;" parent="1" source="Y-jsnY2lHVutLPHMxVx3-23" target="Y-jsnY2lHVutLPHMxVx3-27" edge="1">
          <mxGeometry relative="1" as="geometry" />
        </mxCell>
        <mxCell id="Y-jsnY2lHVutLPHMxVx3-23" value="Admin Confirmation Process" style="rounded=0;whiteSpace=wrap;html=1;fontColor=#FFFFFF;labelBackgroundColor=#000000;fillColor=#000000;strokeColor=#FFFFFF;" parent="1" vertex="1">
          <mxGeometry x="149" y="610" width="209" height="32" as="geometry" />
        </mxCell>
        <mxCell id="9uExxKLS-SaeiL6VDEg2-28" style="edgeStyle=orthogonalEdgeStyle;shape=connector;rounded=0;orthogonalLoop=1;jettySize=auto;html=1;exitX=0.5;exitY=1;exitDx=0;exitDy=0;exitPerimeter=0;entryX=0.25;entryY=0;entryDx=0;entryDy=0;strokeColor=#FFFFFF;align=center;verticalAlign=middle;fontFamily=Helvetica;fontSize=11;fontColor=default;labelBackgroundColor=default;endArrow=classic;" edge="1" parent="1" source="Y-jsnY2lHVutLPHMxVx3-27" target="9uExxKLS-SaeiL6VDEg2-24">
          <mxGeometry relative="1" as="geometry" />
        </mxCell>
        <mxCell id="Y-jsnY2lHVutLPHMxVx3-27" value="Trainer Applicants Table" style="shape=cylinder3;whiteSpace=wrap;html=1;boundedLbl=1;backgroundOutline=1;size=15;strokeColor=#FFFFFF;fillColor=#000000;fontColor=#FFFFFF;" parent="1" vertex="1">
          <mxGeometry x="167" y="676" width="60" height="74" as="geometry" />
        </mxCell>
        <mxCell id="Y-jsnY2lHVutLPHMxVx3-28" value="Nutritionist Applicants Table" style="shape=cylinder3;whiteSpace=wrap;html=1;boundedLbl=1;backgroundOutline=1;size=15;strokeColor=#FFFFFF;fillColor=#000000;fontColor=#FFFFFF;" parent="1" vertex="1">
          <mxGeometry x="274" y="676" width="61" height="74" as="geometry" />
        </mxCell>
        <mxCell id="Y-jsnY2lHVutLPHMxVx3-33" style="edgeStyle=orthogonalEdgeStyle;rounded=0;orthogonalLoop=1;jettySize=auto;html=1;exitX=0.25;exitY=1;exitDx=0;exitDy=0;entryX=0.5;entryY=0;entryDx=0;entryDy=0;entryPerimeter=0;strokeColor=#FFFFFF;" parent="1" source="Y-jsnY2lHVutLPHMxVx3-16" target="Y-jsnY2lHVutLPHMxVx3-20" edge="1">
          <mxGeometry relative="1" as="geometry" />
        </mxCell>
        <mxCell id="Y-jsnY2lHVutLPHMxVx3-34" style="edgeStyle=orthogonalEdgeStyle;rounded=0;orthogonalLoop=1;jettySize=auto;html=1;exitX=0.75;exitY=1;exitDx=0;exitDy=0;entryX=0.5;entryY=0;entryDx=0;entryDy=0;entryPerimeter=0;strokeColor=#FFFFFF;" parent="1" source="Y-jsnY2lHVutLPHMxVx3-16" target="Y-jsnY2lHVutLPHMxVx3-21" edge="1">
          <mxGeometry relative="1" as="geometry" />
        </mxCell>
        <mxCell id="Y-jsnY2lHVutLPHMxVx3-36" style="edgeStyle=orthogonalEdgeStyle;rounded=0;orthogonalLoop=1;jettySize=auto;html=1;exitX=0.5;exitY=1;exitDx=0;exitDy=0;entryX=0.201;entryY=-0.017;entryDx=0;entryDy=0;entryPerimeter=0;strokeColor=#FFFFFF;" parent="1" source="Y-jsnY2lHVutLPHMxVx3-11" target="Y-jsnY2lHVutLPHMxVx3-16" edge="1">
          <mxGeometry relative="1" as="geometry" />
        </mxCell>
        <mxCell id="Y-jsnY2lHVutLPHMxVx3-41" style="edgeStyle=orthogonalEdgeStyle;rounded=0;orthogonalLoop=1;jettySize=auto;html=1;exitX=0.5;exitY=1;exitDx=0;exitDy=0;entryX=0.5;entryY=0;entryDx=0;entryDy=0;entryPerimeter=0;strokeColor=#FFFFFF;" parent="1" source="Y-jsnY2lHVutLPHMxVx3-10" target="Y-jsnY2lHVutLPHMxVx3-15" edge="1">
          <mxGeometry relative="1" as="geometry" />
        </mxCell>
        <mxCell id="9uExxKLS-SaeiL6VDEg2-13" value="" style="edgeStyle=orthogonalEdgeStyle;shape=connector;rounded=0;orthogonalLoop=1;jettySize=auto;html=1;strokeColor=#FFFFFF;align=center;verticalAlign=middle;fontFamily=Helvetica;fontSize=11;fontColor=default;labelBackgroundColor=default;endArrow=classic;" edge="1" parent="1" source="9uExxKLS-SaeiL6VDEg2-3" target="9uExxKLS-SaeiL6VDEg2-12">
          <mxGeometry relative="1" as="geometry" />
        </mxCell>
        <mxCell id="9uExxKLS-SaeiL6VDEg2-3" value="Trainer Login" style="whiteSpace=wrap;html=1;fillColor=#000000;strokeColor=#FFFFFF;fontColor=#FFFFFF;" vertex="1" parent="1">
          <mxGeometry x="381" y="519" width="118" height="31" as="geometry" />
        </mxCell>
        <mxCell id="9uExxKLS-SaeiL6VDEg2-6" value="Progress Log" style="whiteSpace=wrap;html=1;fillColor=#000000;strokeColor=#FFFFFF;fontColor=#FFFFFF;rounded=0;labelBackgroundColor=#000000;" vertex="1" parent="1">
          <mxGeometry x="64" y="347" width="95" height="47" as="geometry" />
        </mxCell>
        <mxCell id="9uExxKLS-SaeiL6VDEg2-8" value="Activity Table in Database" style="shape=cylinder3;whiteSpace=wrap;html=1;boundedLbl=1;backgroundOutline=1;size=15;fontColor=#FFFFFF;fillColor=#000000;strokeColor=#FFFFFF;" vertex="1" parent="1">
          <mxGeometry x="81.5" y="423" width="60" height="80" as="geometry" />
        </mxCell>
        <mxCell id="9uExxKLS-SaeiL6VDEg2-9" style="edgeStyle=orthogonalEdgeStyle;shape=connector;rounded=0;orthogonalLoop=1;jettySize=auto;html=1;exitX=0.5;exitY=1;exitDx=0;exitDy=0;entryX=0.5;entryY=0;entryDx=0;entryDy=0;entryPerimeter=0;strokeColor=#FFFFFF;align=center;verticalAlign=middle;fontFamily=Helvetica;fontSize=11;fontColor=default;labelBackgroundColor=default;endArrow=classic;" edge="1" parent="1" source="9uExxKLS-SaeiL6VDEg2-6" target="9uExxKLS-SaeiL6VDEg2-8">
          <mxGeometry relative="1" as="geometry" />
        </mxCell>
        <mxCell id="9uExxKLS-SaeiL6VDEg2-11" value="" style="edgeStyle=orthogonalEdgeStyle;shape=connector;rounded=0;orthogonalLoop=1;jettySize=auto;html=1;strokeColor=#FFFFFF;align=center;verticalAlign=middle;fontFamily=Helvetica;fontSize=11;fontColor=default;labelBackgroundColor=default;endArrow=none;endFill=0;startArrow=classic;startFill=1;" edge="1" parent="1" source="9uExxKLS-SaeiL6VDEg2-10" target="Y-jsnY2lHVutLPHMxVx3-21">
          <mxGeometry relative="1" as="geometry" />
        </mxCell>
        <mxCell id="9uExxKLS-SaeiL6VDEg2-15" value="" style="edgeStyle=orthogonalEdgeStyle;shape=connector;rounded=0;orthogonalLoop=1;jettySize=auto;html=1;strokeColor=#FFFFFF;align=center;verticalAlign=middle;fontFamily=Helvetica;fontSize=11;fontColor=default;labelBackgroundColor=default;endArrow=classic;" edge="1" parent="1" source="9uExxKLS-SaeiL6VDEg2-10" target="9uExxKLS-SaeiL6VDEg2-14">
          <mxGeometry relative="1" as="geometry" />
        </mxCell>
        <mxCell id="9uExxKLS-SaeiL6VDEg2-10" value="Nutritionist Login" style="whiteSpace=wrap;html=1;fillColor=#000000;strokeColor=#FFFFFF;fontColor=#FFFFFF;" vertex="1" parent="1">
          <mxGeometry x="544" y="519" width="118" height="31" as="geometry" />
        </mxCell>
        <mxCell id="9uExxKLS-SaeiL6VDEg2-23" value="" style="edgeStyle=orthogonalEdgeStyle;shape=connector;rounded=0;orthogonalLoop=1;jettySize=auto;html=1;strokeColor=#FFFFFF;align=center;verticalAlign=middle;fontFamily=Helvetica;fontSize=11;fontColor=default;labelBackgroundColor=default;endArrow=classic;" edge="1" parent="1" source="9uExxKLS-SaeiL6VDEg2-12" target="9uExxKLS-SaeiL6VDEg2-20">
          <mxGeometry relative="1" as="geometry" />
        </mxCell>
        <mxCell id="9uExxKLS-SaeiL6VDEg2-12" value="Schedule Upload" style="whiteSpace=wrap;html=1;fillColor=#000000;strokeColor=#FFFFFF;fontColor=#FFFFFF;" vertex="1" parent="1">
          <mxGeometry x="408" y="583" width="116" height="38" as="geometry" />
        </mxCell>
        <mxCell id="9uExxKLS-SaeiL6VDEg2-22" value="" style="edgeStyle=orthogonalEdgeStyle;shape=connector;rounded=0;orthogonalLoop=1;jettySize=auto;html=1;strokeColor=#FFFFFF;align=center;verticalAlign=middle;fontFamily=Helvetica;fontSize=11;fontColor=default;labelBackgroundColor=default;endArrow=classic;" edge="1" parent="1" source="9uExxKLS-SaeiL6VDEg2-14" target="9uExxKLS-SaeiL6VDEg2-21">
          <mxGeometry relative="1" as="geometry" />
        </mxCell>
        <mxCell id="9uExxKLS-SaeiL6VDEg2-14" value="Diet Rec. Upload" style="whiteSpace=wrap;html=1;fillColor=#000000;strokeColor=#FFFFFF;fontColor=#FFFFFF;" vertex="1" parent="1">
          <mxGeometry x="543" y="585" width="120" height="35" as="geometry" />
        </mxCell>
        <mxCell id="9uExxKLS-SaeiL6VDEg2-19" style="edgeStyle=orthogonalEdgeStyle;shape=connector;rounded=0;orthogonalLoop=1;jettySize=auto;html=1;exitX=0.75;exitY=1;exitDx=0;exitDy=0;entryX=0.5;entryY=0;entryDx=0;entryDy=0;entryPerimeter=0;strokeColor=#FFFFFF;align=center;verticalAlign=middle;fontFamily=Helvetica;fontSize=11;fontColor=default;labelBackgroundColor=default;endArrow=classic;" edge="1" parent="1" source="Y-jsnY2lHVutLPHMxVx3-23" target="Y-jsnY2lHVutLPHMxVx3-28">
          <mxGeometry relative="1" as="geometry" />
        </mxCell>
        <mxCell id="9uExxKLS-SaeiL6VDEg2-20" value="Schedules Table in Database" style="shape=cylinder3;whiteSpace=wrap;html=1;boundedLbl=1;backgroundOutline=1;size=15;fontColor=#FFFFFF;fillColor=#000000;strokeColor=#FFFFFF;" vertex="1" parent="1">
          <mxGeometry x="436" y="646" width="60" height="80" as="geometry" />
        </mxCell>
        <mxCell id="9uExxKLS-SaeiL6VDEg2-21" value="Rec. Table in Database" style="shape=cylinder3;whiteSpace=wrap;html=1;boundedLbl=1;backgroundOutline=1;size=15;fontColor=#FFFFFF;fillColor=#000000;strokeColor=#FFFFFF;" vertex="1" parent="1">
          <mxGeometry x="573" y="646" width="60" height="80" as="geometry" />
        </mxCell>
        <mxCell id="9uExxKLS-SaeiL6VDEg2-24" value="Schedule/ Recommendation Downloads" style="whiteSpace=wrap;html=1;fillColor=#000000;strokeColor=#FFFFFF;fontColor=#FFFFFF;" vertex="1" parent="1">
          <mxGeometry x="141.5" y="778" width="230" height="44" as="geometry" />
        </mxCell>
        <mxCell id="9uExxKLS-SaeiL6VDEg2-27" style="edgeStyle=orthogonalEdgeStyle;shape=connector;rounded=0;orthogonalLoop=1;jettySize=auto;html=1;exitX=0.5;exitY=1;exitDx=0;exitDy=0;exitPerimeter=0;entryX=0.705;entryY=0.031;entryDx=0;entryDy=0;entryPerimeter=0;strokeColor=#FFFFFF;align=center;verticalAlign=middle;fontFamily=Helvetica;fontSize=11;fontColor=default;labelBackgroundColor=default;endArrow=classic;" edge="1" parent="1" source="Y-jsnY2lHVutLPHMxVx3-28" target="9uExxKLS-SaeiL6VDEg2-24">
          <mxGeometry relative="1" as="geometry" />
        </mxCell>
      </root>
    </mxGraphModel>
  </diagram>
</mxfile>
